<?xml version="1.0" standalone="no"?>
<!DOCTYPE svg PUBLIC "-//W3C//DTD SVG 20010904//EN"
 "http://www.w3.org/TR/2001/REC-SVG-20010904/DTD/svg10.dtd">
<svg version="1.0" xmlns="http://www.w3.org/2000/svg"
 width="2528.000000pt" height="2528.000000pt" viewBox="0 0 2528.000000 2528.000000"
 preserveAspectRatio="xMidYMid meet">
<metadata>
Created by potrace 1.11, written by Peter Selinger 2001-2013
</metadata>
<g transform="translate(0.000000,2528.000000) scale(0.100000,-0.100000)"
fill="#000000" stroke="none">
<path d="M11189 25276 c-2 -2 -36 -7 -75 -10 -39 -4 -81 -8 -92 -11 -12 -2
-47 -6 -79 -10 -49 -5 -258 -35 -358 -51 -16 -3 -41 -7 -55 -9 -28 -4 -112
-18 -120 -20 -3 -1 -30 -5 -60 -10 -30 -5 -57 -9 -60 -10 -3 -1 -23 -5 -45 -9
-48 -9 -232 -46 -260 -52 -11 -2 -31 -6 -45 -9 -271 -50 -862 -207 -1245 -332
-267 -86 -718 -247 -820 -293 -11 -5 -92 -39 -180 -76 -88 -36 -180 -75 -205
-86 -838 -374 -1564 -787 -2284 -1300 -73 -53 -329 -243 -356 -265 -8 -7 -60
-47 -115 -90 -55 -42 -102 -80 -105 -83 -3 -3 -54 -46 -115 -95 -419 -340
-967 -864 -1335 -1275 -47 -52 -87 -97 -90 -100 -17 -16 -210 -243 -291 -340
-354 -429 -722 -940 -1002 -1394 -7 -11 -26 -43 -44 -71 -17 -28 -40 -67 -51
-86 -11 -19 -59 -101 -107 -184 -48 -82 -102 -177 -120 -210 -18 -33 -56 -103
-85 -155 -48 -88 -287 -570 -323 -650 -8 -19 -33 -75 -56 -123 -23 -49 -41
-91 -41 -93 0 -2 -12 -29 -26 -61 -161 -354 -401 -1014 -521 -1428 -35 -124
-44 -155 -63 -225 -49 -177 -149 -580 -164 -660 -3 -14 -21 -101 -40 -195 -48
-229 -89 -466 -126 -725 l-31 -215 4 -1630 c1 -896 6 -1641 9 -1655 6 -21 34
-204 43 -280 4 -26 61 -358 70 -400 3 -14 8 -41 11 -60 16 -91 96 -454 138
-626 82 -331 212 -770 321 -1079 31 -88 57 -164 59 -170 2 -5 6 -17 9 -25 4
-8 20 -53 37 -100 17 -47 34 -94 40 -105 5 -11 29 -72 54 -135 160 -406 397
-921 581 -1260 106 -196 163 -298 206 -372 16 -27 29 -53 29 -58 0 -6 5 -10
10 -10 6 0 10 -4 10 -10 0 -9 32 -66 85 -150 12 -19 59 -96 105 -170 80 -128
249 -389 260 -400 3 -3 27 -39 55 -80 27 -41 53 -79 58 -85 4 -5 47 -64 94
-130 173 -242 462 -612 608 -779 6 -6 35 -41 65 -76 59 -70 93 -109 125 -144
11 -13 56 -62 100 -111 335 -371 857 -878 1165 -1131 19 -16 40 -33 46 -39
173 -158 746 -595 1024 -780 41 -28 81 -56 90 -62 44 -36 550 -355 610 -386 8
-4 29 -16 45 -27 27 -17 73 -43 190 -110 22 -12 78 -43 125 -68 47 -25 87 -48
90 -51 11 -13 518 -265 690 -344 422 -193 1063 -449 1235 -494 11 -2 29 -9 40
-13 23 -10 392 -128 421 -135 10 -2 66 -18 124 -35 108 -33 245 -69 455 -121
176 -44 223 -55 405 -93 253 -53 340 -69 345 -64 7 7 7 10769 0 10776 -7 7
-2753 7 -2761 0 -3 -3 -5 -1588 -5 -3521 l0 -3516 -32 18 c-314 178 -820 523
-1167 798 -33 26 -325 268 -330 273 -3 3 -43 39 -90 80 -112 99 -343 315 -424
396 -364 369 -657 701 -901 1024 -28 36 -55 72 -62 80 -62 76 -246 339 -375
536 -554 842 -977 1766 -1257 2744 -68 240 -144 545 -166 669 -3 19 -7 37 -9
40 -2 3 -7 23 -10 45 -4 21 -15 82 -26 135 -10 53 -22 114 -25 135 -3 21 -7
48 -10 60 -2 12 -7 39 -10 61 -3 22 -10 69 -16 105 -20 127 -28 184 -34 240
-8 68 -16 132 -20 165 -2 17 -6 59 -10 95 -3 36 -8 85 -10 110 -3 25 -7 79
-10 120 -3 41 -8 99 -10 128 -24 293 -24 1043 0 1347 2 22 6 76 9 120 4 44 8
100 11 125 3 25 7 69 10 98 10 99 16 157 20 182 2 14 6 48 9 75 4 28 8 66 11
85 3 19 7 51 10 70 2 19 6 44 9 55 2 11 7 45 10 76 4 31 9 67 12 80 2 13 18
98 35 189 33 182 79 401 111 525 11 44 21 87 23 95 14 69 92 349 147 525 58
186 132 404 178 525 12 30 25 66 30 80 12 38 88 229 111 277 10 24 19 45 19
48 0 2 11 28 24 57 13 29 33 73 44 98 78 179 106 238 197 420 56 113 119 237
140 275 111 204 256 454 330 570 237 371 385 582 614 875 88 113 280 347 316
386 5 6 39 44 75 85 220 250 552 586 799 808 41 36 81 73 90 81 14 14 96 84
170 145 13 11 29 25 35 30 6 6 33 28 61 50 27 22 62 51 78 65 59 51 377 291
527 397 149 104 435 291 575 375 234 139 266 158 270 158 3 0 26 13 52 29 100
61 490 260 678 346 721 330 1472 576 2200 721 11 2 31 6 45 9 14 3 36 8 50 10
32 7 235 43 275 49 17 3 71 11 120 20 50 8 115 17 145 21 l55 7 -2 1291 c-1
711 -2 1297 -2 1302 -1 10 -43 19 -52 11z"/>
<path d="M14018 25268 c0 -2 -2 -589 -3 -1305 -1 -1171 0 -1303 14 -1307 9 -3
36 -7 61 -10 25 -3 54 -8 65 -10 11 -2 41 -6 66 -10 45 -7 70 -11 119 -21 14
-3 50 -9 80 -15 64 -11 95 -17 130 -24 14 -3 61 -13 105 -22 90 -18 91 -19
125 -27 14 -3 57 -13 95 -22 39 -8 96 -22 128 -31 32 -8 66 -17 75 -19 177
-34 803 -233 1092 -345 30 -12 71 -27 90 -35 66 -24 325 -133 395 -165 39 -18
115 -52 170 -77 244 -109 651 -326 918 -487 65 -39 129 -77 143 -84 28 -15
533 -352 555 -370 8 -7 92 -71 187 -142 225 -168 445 -346 607 -492 17 -14 41
-36 55 -48 149 -127 556 -529 725 -715 250 -276 433 -497 646 -781 179 -238
412 -585 560 -832 59 -98 199 -341 199 -345 0 -3 16 -34 36 -69 142 -249 384
-769 517 -1113 77 -198 212 -579 222 -629 3 -10 15 -53 29 -95 92 -285 248
-934 281 -1167 3 -22 8 -50 11 -64 10 -56 12 -67 18 -115 4 -27 9 -57 11 -65
2 -8 6 -35 9 -60 3 -25 8 -54 10 -65 2 -11 7 -49 11 -85 4 -36 8 -72 10 -81 2
-8 6 -42 9 -74 4 -32 8 -72 11 -89 2 -17 6 -62 10 -101 3 -38 8 -92 10 -120 9
-93 15 -180 20 -290 3 -60 8 -146 10 -190 5 -98 5 -650 0 -760 -10 -211 -16
-323 -20 -360 -2 -22 -7 -80 -10 -129 -4 -49 -8 -98 -10 -110 -2 -11 -6 -50
-10 -85 -3 -36 -8 -79 -10 -95 -2 -17 -9 -71 -15 -121 -18 -154 -26 -209 -56
-387 -57 -346 -149 -757 -239 -1073 -100 -352 -288 -893 -382 -1105 -12 -25
-37 -85 -58 -135 -20 -49 -59 -137 -86 -194 -27 -57 -49 -105 -49 -108 0 -5
-186 -376 -220 -438 -15 -27 -47 -86 -70 -130 -177 -328 -482 -807 -701 -1102
-168 -225 -459 -588 -539 -673 -8 -9 -46 -52 -85 -95 -220 -248 -551 -579
-800 -800 -55 -48 -116 -102 -135 -119 -157 -140 -495 -404 -758 -593 -218
-157 -728 -480 -739 -469 -3 3 -6 3134 -5 6958 0 3824 -1 6962 -3 6974 l-4 20
-1378 -2 c-758 0 -1380 -2 -1383 -3 -4 -1 -8 -17711 -3 -17711 1 0 268 53 333
66 184 37 593 138 754 185 38 12 77 22 87 24 11 2 23 6 27 9 5 3 19 7 33 10
148 28 1033 337 1267 442 29 13 55 24 58 24 3 0 25 9 50 20 98 44 132 59 193
85 129 54 311 140 553 261 216 108 311 159 593 314 267 148 746 453 1050 668
119 84 465 341 475 352 3 3 25 21 50 40 25 19 47 37 50 40 3 3 60 49 128 104
68 54 129 104 135 110 7 6 59 51 117 101 58 49 121 104 140 122 19 17 46 41
60 53 13 12 70 63 124 113 674 620 1262 1292 1807 2066 712 1011 1299 2197
1684 3401 94 295 238 815 261 944 3 16 7 32 9 36 2 4 7 22 10 41 3 19 10 50
15 69 13 50 97 473 109 550 6 36 13 76 16 90 3 14 14 86 25 160 12 74 23 146
25 160 2 14 6 48 9 75 4 28 8 61 11 75 4 26 11 82 20 165 3 28 7 66 10 85 2
19 7 58 9 85 3 28 8 79 12 114 8 84 12 129 19 231 4 47 8 105 10 130 28 363
28 1314 0 1680 -2 25 -7 90 -10 145 -4 55 -8 114 -10 130 -1 17 -6 62 -10 100
-4 39 -9 84 -11 100 -2 17 -6 66 -10 110 -3 44 -8 82 -9 85 -2 3 -6 33 -10 65
-3 33 -11 94 -17 135 -5 41 -11 84 -13 95 -7 59 -17 126 -25 170 -5 28 -12 68
-15 89 -3 21 -7 48 -10 60 -2 12 -7 37 -10 56 -2 19 -7 46 -10 60 -3 14 -8 41
-10 60 -3 19 -19 100 -35 180 -16 80 -32 156 -34 170 -57 307 -241 979 -378
1385 -91 270 -276 759 -350 923 -11 26 -26 61 -33 77 -151 350 -378 810 -570
1150 -40 72 -82 146 -93 165 -44 80 -200 336 -270 445 -489 761 -1006 1416
-1607 2033 -133 136 -336 338 -390 387 -16 15 -60 55 -96 88 -106 100 -158
147 -273 247 -60 52 -119 104 -132 115 -12 11 -40 34 -61 51 -21 17 -81 67
-134 110 -52 44 -113 93 -134 109 -21 17 -50 39 -64 51 -53 42 -318 242 -386
289 -38 27 -74 53 -80 58 -36 30 -350 243 -500 339 -576 371 -1185 695 -1826
973 -474 206 -1014 399 -1519 544 -168 48 -538 145 -590 154 -14 3 -64 14
-112 26 -48 11 -98 22 -110 25 -13 2 -68 13 -123 25 -129 26 -170 34 -240 46
-16 3 -41 7 -55 10 -34 7 -176 32 -225 40 -22 3 -51 8 -65 10 -69 12 -160 25
-205 30 -27 3 -61 8 -75 10 -14 3 -63 9 -110 15 -47 5 -100 12 -117 15 -18 3
-34 5 -35 3z"/>
<path d="M11242 7265 c0 -3957 3 -7195 6 -7195 4 0 45 -4 92 -10 47 -5 119
-12 160 -15 128 -9 203 -15 265 -20 329 -27 1290 -27 1605 0 25 2 83 6 130 9
95 7 193 15 260 21 25 3 74 8 110 11 36 4 74 7 85 9 11 1 29 3 40 4 20 1 20 8
20 7191 l0 7190 -1387 0 -1386 0 0 -7195z"/>
</g>
</svg>
