<?xml version="1.0" encoding="iso-8859-1"?>
<!-- Generator: Adobe Illustrator 21.0.0, SVG Export Plug-In . SVG Version: 6.00 Build 0)  -->
<svg xmlns="http://www.w3.org/2000/svg" xmlns:xlink="http://www.w3.org/1999/xlink" version="1.1" id="Capa_1" x="0px" y="0px" viewBox="0 0 512 512" style="enable-background:new 0 0 512 512;" xml:space="preserve" width="512" height="512">
<g>
	<path style="fill:#FECA57;" d="M402.396,60.604c-80.806-80.805-211.816-80.805-292.621-0.001   c-80.885,80.885-81.057,211.159-0.376,292.246c17.885,17.976,38.25,31.97,59.995,41.994c13.467,6.208,24.489,16.715,31.554,29.753   l43.657,80.567c4.939,9.115,18.02,9.115,22.959,0l43.657-80.568c7.14-13.175,18.374-23.64,31.97-29.944   c21.437-9.94,41.524-23.745,59.204-41.426C483.202,272.421,483.202,141.409,402.396,60.604z M256,349.089   c-78.474,0-142.089-63.615-142.089-142.089S177.526,64.911,256,64.911S398.089,128.526,398.089,207S334.474,349.089,256,349.089z"/>
	<g>
		<path style="fill:#F4B537;" d="M231.856,424.597c-7.065-13.038-18.087-23.545-31.554-29.753    c-21.745-10.024-42.11-24.018-59.995-41.994c-80.681-81.088-80.509-211.362,0.376-292.246    c36.469-36.469,83.165-56.472,130.857-60.023C213.56-3.736,154.11,16.268,109.775,60.603    c-80.885,80.885-81.057,211.159-0.376,292.246c17.885,17.976,38.25,31.97,59.995,41.994c13.467,6.208,24.489,16.715,31.554,29.753    l43.657,80.567c4.939,9.115,18.02,9.115,22.959,0l3.974-7.334L231.856,424.597z"/>
		<path style="fill:#F4B537;" d="M271.454,348.25c5.077,0.549,10.231,0.839,15.454,0.839c78.474,0,142.089-63.615,142.089-142.089    S365.381,64.911,286.907,64.911c-5.223,0-10.377,0.29-15.454,0.839c71.203,7.702,126.636,67.999,126.636,141.25    S342.657,340.547,271.454,348.25z"/>
	</g>
	<path style="fill:#576574;" d="M236.913,160.961c0-3.128-2.536-5.664-5.663-5.664h-26.846c-3.128,0-5.663,2.535-5.663,5.664v35.215   c0,3.128,2.536,5.664,5.663,5.664h26.846c3.128,0,5.663-2.535,5.663-5.664V160.961z"/>
	<path style="fill:#576574;" d="M313.259,160.961c0-3.128-2.536-5.664-5.663-5.664H280.75c-3.128,0-5.663,2.535-5.663,5.664v35.215   c0,3.128,2.536,5.664,5.663,5.664h26.846c3.128,0,5.663-2.535,5.663-5.664V160.961z"/>
	<path style="fill:#576574;" d="M193.077,201.839h-26.846c-3.128,0-5.663,2.535-5.663,5.664v35.215c0,3.128,2.536,5.664,5.663,5.664   h26.846c3.128,0,5.663-2.535,5.663-5.664v-35.215C198.74,204.375,196.205,201.839,193.077,201.839z"/>
	<path style="fill:#576574;" d="M345.769,201.839h-26.846c-3.128,0-5.663,2.535-5.663,5.664v35.215c0,3.128,2.536,5.664,5.663,5.664   h26.846c3.128,0,5.663-2.535,5.663-5.664v-35.215C351.432,204.375,348.897,201.839,345.769,201.839z"/>
	<path style="fill:#576574;" d="M269.423,201.839h-26.846c-3.128,0-5.663,2.535-5.663,5.664v35.215c0,3.128,2.536,5.664,5.663,5.664   h26.846c3.128,0,5.663-2.535,5.663-5.664v-35.215C275.086,204.375,272.551,201.839,269.423,201.839z"/>
	<path style="fill:#3E4B5A;" d="M223.123,196.176v-35.215c0-3.128,2.536-5.664,5.664-5.664h-24.383   c-3.128,0-5.663,2.536-5.663,5.664v35.215c0,3.128,2.536,5.663,5.663,5.663h24.383   C225.658,201.839,223.123,199.304,223.123,196.176z"/>
	<path style="fill:#3E4B5A;" d="M299.469,196.176v-35.215c0-3.128,2.536-5.664,5.663-5.664H280.75c-3.128,0-5.663,2.536-5.663,5.664   v35.215c0,3.128,2.535,5.663,5.663,5.663h24.382C302.005,201.839,299.469,199.304,299.469,196.176z"/>
	<path style="fill:#3E4B5A;" d="M184.95,242.717v-35.215c0-3.128,2.536-5.663,5.664-5.663h-24.383c-3.128,0-5.664,2.536-5.664,5.663   v35.215c0,3.128,2.536,5.664,5.664,5.664h24.383C187.486,248.381,184.95,245.845,184.95,242.717z"/>
	<path style="fill:#3E4B5A;" d="M337.642,242.717v-35.215c0-3.128,2.536-5.663,5.664-5.663h-24.383   c-3.128,0-5.663,2.536-5.663,5.663v35.215c0,3.128,2.535,5.664,5.663,5.664h24.383   C340.177,248.381,337.642,245.845,337.642,242.717z"/>
	<path style="fill:#3E4B5A;" d="M261.296,242.717v-35.215c0-3.128,2.536-5.663,5.663-5.663h-24.382   c-3.128,0-5.664,2.536-5.664,5.663v35.215c0,3.128,2.536,5.664,5.664,5.664h24.382   C263.832,248.381,261.296,245.845,261.296,242.717z"/>
</g>















</svg>
