<svg width="146" height="76" viewBox="0 0 146 76" fill="none" xmlns="http://www.w3.org/2000/svg">
<g clip-path="url(#clip0)">
<path d="M72.63 50.0601L66.24 27.9401C66.0405 27.3175 65.6481 26.7746 65.1195 26.3899C64.591 26.0052 63.9538 25.7986 63.3 25.8001H33.86C33.2076 25.7992 32.5719 26.0061 32.0451 26.3909C31.5182 26.7757 31.1277 27.3183 30.93 27.9401L24.65 50.0601" stroke="#3C80F9" stroke-width="3" stroke-miterlimit="10"/>
<path d="M120.42 50.0601L114.25 27.9401C114.052 27.3183 113.662 26.7757 113.135 26.3909C112.608 26.0061 111.972 25.7992 111.32 25.8001H81.88C81.2263 25.7986 80.589 26.0052 80.0605 26.3899C79.5319 26.7746 79.1395 27.3175 78.94 27.9401L72.63 50.0601" stroke="#3C80F9" stroke-width="3" stroke-miterlimit="10"/>
<path d="M42.23 52.2001C42.031 51.5791 41.6401 51.0374 41.1136 50.6528C40.587 50.2683 39.952 50.0607 39.3 50.0601H9.86C9.20702 50.0617 8.57121 50.2694 8.04327 50.6537C7.51533 51.038 7.12222 51.5792 6.92001 52.2001L1.59001 72.0001C1.50174 72.273 1.47924 72.5629 1.52435 72.8462C1.56945 73.1295 1.68088 73.3981 1.84954 73.6302C2.01821 73.8622 2.23933 74.0511 2.49487 74.1814C2.75042 74.3117 3.03315 74.3798 3.32001 74.3801H45.83C46.1169 74.3798 46.3996 74.3117 46.6551 74.1814C46.9107 74.0511 47.1318 73.8622 47.3005 73.6302C47.4691 73.3981 47.5806 73.1295 47.6257 72.8462C47.6708 72.5629 47.6483 72.273 47.56 72.0001L42.23 52.2001Z" stroke="#3C80F9" stroke-width="3" stroke-miterlimit="10"/>
<path d="M90.25 52.2001C90.0478 51.5792 89.6547 51.038 89.1268 50.6537C88.5988 50.2694 87.963 50.0617 87.31 50.0601H57.87C57.217 50.0617 56.5812 50.2694 56.0533 50.6537C55.5253 51.038 55.1322 51.5792 54.93 52.2001L49.6 72.0001C49.5115 72.2738 49.4891 72.5646 49.5348 72.8487C49.5804 73.1328 49.6927 73.402 49.8625 73.6342C50.0323 73.8665 50.2547 74.0552 50.5116 74.1848C50.7684 74.3145 51.0523 74.3814 51.34 74.3801H93.84C94.1277 74.3814 94.4116 74.3145 94.6685 74.1848C94.9253 74.0552 95.1478 73.8665 95.3176 73.6342C95.4873 73.402 95.5997 73.1328 95.6453 72.8487C95.6909 72.5646 95.6686 72.2738 95.58 72.0001L90.25 52.2001Z" stroke="#3C80F9" stroke-width="3" stroke-miterlimit="10"/>
<path d="M96.36 25.8L90.25 3.64001C90.0504 3.01746 89.658 2.47455 89.1295 2.08983C88.6009 1.7051 87.9637 1.49853 87.31 1.50001H57.87C57.2162 1.49853 56.579 1.7051 56.0504 2.08983C55.5219 2.47455 55.1295 3.01746 54.93 3.64001L48.83 25.8" stroke="#3C80F9" stroke-width="3" stroke-miterlimit="10"/>
<path d="M138.26 52.2001C138.058 51.5792 137.665 51.038 137.137 50.6537C136.609 50.2694 135.973 50.0617 135.32 50.0601H105.88C105.237 50.0712 104.613 50.2836 104.096 50.6674C103.58 51.0512 103.196 51.5872 103 52.2001L97.62 72.0001C97.5318 72.273 97.5093 72.5629 97.5544 72.8462C97.5995 73.1295 97.7109 73.3981 97.8796 73.6302C98.0482 73.8622 98.2694 74.0511 98.5249 74.1814C98.7804 74.3117 99.0632 74.3798 99.35 74.3801H141.86C142.147 74.3798 142.43 74.3117 142.685 74.1814C142.941 74.0511 143.162 73.8622 143.33 73.6302C143.499 73.3981 143.611 73.1295 143.656 72.8462C143.701 72.5629 143.678 72.273 143.59 72.0001L138.26 52.2001Z" stroke="#3C80F9" stroke-width="3" stroke-miterlimit="10"/>
</g>
<defs>
<clipPath id="clip0">
<rect width="145.18" height="75.86" fill="white"/>
</clipPath>
</defs>
</svg>
